<svg id="_Слой_2" data-name="Слой 2" xmlns="http://www.w3.org/2000/svg" viewBox="0 0 628.86 372.62">
  <defs>
    <style>
      .cls-1 {
        fill: currentColor;
        stroke-width: 0px;
      }
    </style>
  </defs>
  <g id="_Слой_1-2" data-name="Слой 1">
    <path class="cls-1" d="M49.68,0c-11.59-.02-21.6,8.1-23.96,19.46C18.07,56.35,8.6,99.61,5.86,126.07,2.32,160.29,0,204.68,0,239.08v17.49c0,64.1,51.62,116.06,115.3,116.06h46.94c68.22,0,128.54-53.22,128.54-120.9,0-35.64,9.12-34.64,18.08-34.64h9c8.82,0,20.22-4,20.22,34.64,0,67.67,60.32,120.9,128.54,120.9h46.94c63.68,0,115.3-51.96,115.3-116.06v-57.11c0-65.63-52.85-118.83-118.05-118.83h-54.98c-47.53,0-89.83,30.01-108.75,71.03-2.93,6.35-9.36,10.33-16.35,10.21l-31.22-.57c-6.71-.12-12.84-4.01-15.66-10.1-19.03-41.16-63.09-70.57-110.82-70.57h-58.17q-16,.46-27.44,1.18c-6.9.43-12.7-4.93-11.89-11.79l9.35-57.72C85.92,5.88,80.98.06,74.49.05L49.68,0ZM228.5,249.66c0,33.78-27.21,61.17-60.77,61.17h-46.35c-33.56,0-60.77-27.39-60.77-61.17v-60.73c0-25.69,20.69-46.52,46.22-46.52h75.46c25.52,0,46.22,20.83,46.22,46.52v60.73ZM569.25,249.66c0,33.78-27.21,61.17-60.77,61.17h-46.35c-33.56,0-60.77-27.39-60.77-61.17v-60.73c0-25.69,20.69-46.52,46.22-46.52h75.46c25.52,0,46.22,20.83,46.22,46.52v60.73Z"/>
  </g>
</svg>
